<svg width="130" height="130" viewBox="0 0 130 130" fill="none" xmlns="http://www.w3.org/2000/svg">
<g filter="url(#filter0_d_11_45)">
<rect x="3" y="3" width="6.36951" height="6.36951" fill="#FFA800" fill-opacity="0.45"/>
<rect x="2.99994" y="120.63" width="6.36951" height="6.36951" fill="#FFA800" fill-opacity="0.45"/>
<rect x="2.99994" y="61.8152" width="6.36951" height="6.36951" fill="#FFA800" fill-opacity="0.45"/>
<rect x="2.99994" y="32.4077" width="6.36951" height="6.36951" fill="#FFA800" fill-opacity="0.45"/>
<rect x="2.99994" y="91.2228" width="6.36951" height="6.36951" fill="#FFA800" fill-opacity="0.45"/>
<rect x="61.8152" y="3" width="6.36951" height="6.36951" fill="#FFA800" fill-opacity="0.45"/>
<rect x="61.8152" y="120.63" width="6.36951" height="6.36951" fill="#FFA800" fill-opacity="0.45"/>
<rect x="61.8152" y="61.8152" width="6.36951" height="6.36951" fill="#FFA800" fill-opacity="0.45"/>
<rect x="61.8152" y="32.4077" width="6.36951" height="6.36951" fill="#FFA800" fill-opacity="0.45"/>
<rect x="61.8152" y="91.2228" width="6.36951" height="6.36951" fill="#FFA800" fill-opacity="0.45"/>
<rect x="32.4074" y="3" width="6.36951" height="6.36951" fill="#FFA800" fill-opacity="0.45"/>
<rect x="32.4075" y="120.63" width="6.36951" height="6.36951" fill="#FFA800" fill-opacity="0.45"/>
<rect x="32.4075" y="61.8152" width="6.36951" height="6.36951" fill="#FFA800" fill-opacity="0.45"/>
<rect x="32.4075" y="32.4077" width="6.36951" height="6.36951" fill="#FFA800" fill-opacity="0.45"/>
<rect x="32.4075" y="91.2228" width="6.36951" height="6.36951" fill="#FFA800" fill-opacity="0.45"/>
<rect x="91.2227" y="3" width="6.36951" height="6.36951" fill="#FFA800" fill-opacity="0.45"/>
<rect x="91.2227" y="120.63" width="6.36951" height="6.36951" fill="#FFA800" fill-opacity="0.45"/>
<rect x="91.2227" y="61.8152" width="6.36951" height="6.36951" fill="#FFA800" fill-opacity="0.45"/>
<rect x="91.2227" y="32.4077" width="6.36951" height="6.36951" fill="#FFA800" fill-opacity="0.45"/>
<rect x="91.2227" y="91.2228" width="6.36951" height="6.36951" fill="#FFA800" fill-opacity="0.45"/>
<rect x="120.63" y="3" width="6.36951" height="6.36951" fill="#FFA800" fill-opacity="0.45"/>
<rect x="120.63" y="120.63" width="6.36951" height="6.36951" fill="#FFA800" fill-opacity="0.45"/>
<rect x="120.63" y="61.8152" width="6.36951" height="6.36951" fill="#FFA800" fill-opacity="0.45"/>
<rect x="120.63" y="32.4077" width="6.36951" height="6.36951" fill="#FFA800" fill-opacity="0.45"/>
<rect x="120.63" y="91.2228" width="6.36951" height="6.36951" fill="#FFA800" fill-opacity="0.45"/>
</g>
<defs>
<filter id="filter0_d_11_45" x="0.971717" y="0.971778" width="128.056" height="128.056" filterUnits="userSpaceOnUse" color-interpolation-filters="sRGB">
<feFlood flood-opacity="0" result="BackgroundImageFix"/>
<feColorMatrix in="SourceAlpha" type="matrix" values="0 0 0 0 0 0 0 0 0 0 0 0 0 0 0 0 0 0 127 0" result="hardAlpha"/>
<feOffset/>
<feGaussianBlur stdDeviation="1.01411"/>
<feComposite in2="hardAlpha" operator="out"/>
<feColorMatrix type="matrix" values="0 0 0 0 0 0 0 0 0 0 0 0 0 0 0 0 0 0 0.15 0"/>
<feBlend mode="normal" in2="BackgroundImageFix" result="effect1_dropShadow_11_45"/>
<feBlend mode="normal" in="SourceGraphic" in2="effect1_dropShadow_11_45" result="shape"/>
</filter>
</defs>
</svg>
