<svg width="83" height="95" viewBox="0 0 83 95" fill="none" xmlns="http://www.w3.org/2000/svg">
<g filter="url(#filter0_d_8_117)">
<path d="M5 10C5 4.47716 9.47715 0 15 0H68C73.5229 0 78 4.47715 78 10V74.7742C78 80.297 73.5229 84.7742 68 84.7742H15C9.47715 84.7742 5 80.2971 5 74.7742V10Z" fill="#1AADCD"/>
<path fill-rule="evenodd" clip-rule="evenodd" d="M31.6988 15.4962H34.4994V12.6956H26.0978V15.4962H28.8983V18.2967H25.8598C25.5294 17.362 24.8793 16.5742 24.0243 16.0726C23.1693 15.5709 22.1644 15.3877 21.1874 15.5552C20.2103 15.7228 19.324 16.2304 18.685 16.9883C18.046 17.7462 17.6956 18.7056 17.6956 19.6969C17.6956 20.6883 18.046 21.6477 18.685 22.4056C19.324 23.1635 20.2103 23.6711 21.1874 23.8386C22.1644 24.0062 23.1693 23.823 24.0243 23.3213C24.8793 22.8196 25.5294 22.0319 25.8598 21.0972H28.8983V24.0139C26.9407 24.3454 25.1636 25.3593 23.882 26.8758C22.6005 28.3924 21.8973 30.3137 21.897 32.2993V67.3057C21.897 67.6771 22.0446 68.0333 22.3072 68.2959C22.5698 68.5585 22.9259 68.706 23.2973 68.706H37.2999C37.6712 68.706 38.0274 68.5585 38.29 68.2959C38.5526 68.0333 38.7001 67.6771 38.7001 67.3057V32.2993C38.6999 30.3137 37.9967 28.3924 36.7151 26.8758C35.4336 25.3593 33.6565 24.3454 31.6988 24.0139V21.0972H38.7001V18.2967H31.6988V15.4962ZM30.2986 26.6982C28.8131 26.6982 27.3885 27.2883 26.3381 28.3387C25.2877 29.3891 24.6975 30.8138 24.6975 32.2993V35.0998H35.8996V32.2993C35.8996 30.8138 35.3095 29.3891 34.2591 28.3387C33.2087 27.2883 31.7841 26.6982 30.2986 26.6982ZM24.6975 65.9055V37.9003H35.8996V65.9055H24.6975ZM20.4968 19.6969C20.4968 19.3256 20.6443 18.9694 20.9069 18.7068C21.1695 18.4442 21.5257 18.2967 21.897 18.2967C22.2684 18.2967 22.6246 18.4442 22.8872 18.7068C23.1498 18.9694 23.2973 19.3256 23.2973 19.6969C23.2973 20.0683 23.1498 20.4245 22.8872 20.6871C22.6246 20.9497 22.2684 21.0972 21.897 21.0972C21.5257 21.0972 21.1695 20.9497 20.9069 20.6871C20.6443 20.4245 20.4968 20.0683 20.4968 19.6969ZM44.3012 36.5C44.3012 35.0145 44.8913 33.5899 45.9417 32.5395C46.9921 31.4891 48.4167 30.899 49.9022 30.899C51.3877 30.899 52.8123 31.4891 53.8627 32.5395C54.9131 33.5899 55.5032 35.0145 55.5032 36.5V44.9016C55.5032 46.3871 54.9131 47.8117 53.8627 48.8621C52.8123 49.9125 51.3877 50.5026 49.9022 50.5026C48.4167 50.5026 46.9921 49.9125 45.9417 48.8621C44.8913 47.8117 44.3012 46.3871 44.3012 44.9016V36.5ZM49.9022 33.6995C49.1595 33.6995 48.4471 33.9946 47.9219 34.5198C47.3967 35.045 47.1017 35.7573 47.1017 36.5V44.9016C47.1017 45.6443 47.3967 46.3567 47.9219 46.8818C48.4471 47.407 49.1595 47.7021 49.9022 47.7021C50.6449 47.7021 51.3573 47.407 51.8825 46.8818C52.4077 46.3567 52.7027 45.6443 52.7027 44.9016V36.5C52.7027 35.7573 52.4077 35.045 51.8825 34.5198C51.3573 33.9946 50.6449 33.6995 49.9022 33.6995ZM61.1043 43.5013H56.9035V40.7008H61.1043C62.2184 40.7008 63.2869 41.1434 64.0747 41.9312C64.8625 42.719 65.305 43.7875 65.305 44.9016C65.305 46.0157 64.8625 47.0842 64.0747 47.872C63.2869 48.6598 62.2184 49.1024 61.1043 49.1024C60.7329 49.1024 60.3767 49.2499 60.1141 49.5125C59.8515 49.7751 59.704 50.1312 59.704 50.5026V51.9029H65.305V54.7034H58.3038C57.9324 54.7034 57.5762 54.5559 57.3136 54.2933C57.051 54.0307 56.9035 53.6745 56.9035 53.3031V50.5026C56.9035 49.3885 57.3461 48.32 58.1339 47.5322C58.9217 46.7444 59.9902 46.3018 61.1043 46.3018C61.4756 46.3018 61.8318 46.1543 62.0944 45.8917C62.357 45.6291 62.5045 45.273 62.5045 44.9016C62.5045 44.5302 62.357 44.1741 62.0944 43.9115C61.8318 43.6489 61.4756 43.5013 61.1043 43.5013Z" fill="#F8F8F8"/>
</g>
<defs>
<filter id="filter0_d_8_117" x="0.159424" y="0" width="82.6812" height="94.4554" filterUnits="userSpaceOnUse" color-interpolation-filters="sRGB">
<feFlood flood-opacity="0" result="BackgroundImageFix"/>
<feColorMatrix in="SourceAlpha" type="matrix" values="0 0 0 0 0 0 0 0 0 0 0 0 0 0 0 0 0 0 127 0" result="hardAlpha"/>
<feOffset dy="4.84058"/>
<feGaussianBlur stdDeviation="2.42029"/>
<feComposite in2="hardAlpha" operator="out"/>
<feColorMatrix type="matrix" values="0 0 0 0 0 0 0 0 0 0 0 0 0 0 0 0 0 0 0.25 0"/>
<feBlend mode="normal" in2="BackgroundImageFix" result="effect1_dropShadow_8_117"/>
<feBlend mode="normal" in="SourceGraphic" in2="effect1_dropShadow_8_117" result="shape"/>
</filter>
</defs>
</svg>
