<svg width="71" height="75" viewBox="0 0 71 75" fill="none" xmlns="http://www.w3.org/2000/svg">
<rect width="71" height="75" rx="9.42284" fill="#A7881B"/>
<path d="M25.7658 34.1814C24.0289 32.2393 22.399 31.8218 20.874 32.93C18.5866 34.5923 17.9301 40.388 19.7699 45.4976C21.6108 50.6071 25.1896 57.5653 32.4151 57.5653C39.6396 57.5653 41.3487 50.5641 44.2958 46.3315C47.2438 42.099 48.8027 38.0153 45.9144 32.93" stroke="#F8F8F8" stroke-width="3.54428" stroke-linecap="round" stroke-linejoin="round"/>
<path d="M22.1233 32.3263C20.763 30.4358 19.391 28.5522 18.0073 26.6757C16.5194 24.668 20.3236 22.0725 22.1233 23.8378C23.3231 25.0153 24.917 26.7488 26.905 29.0391" stroke="#F8F8F8" stroke-width="3.54428" stroke-linecap="round"/>
<path d="M26.2639 39.4426C25.7648 33.7668 26.1713 30.0715 27.4802 28.3558C29.4455 25.7819 33.0953 24.8065 36.5322 24.8065C38.5798 24.8065 40.4485 25.5993 42.1401 27.1849" stroke="#F8F8F8" stroke-width="3.54428" stroke-linecap="round" stroke-linejoin="round"/>
<path d="M52.9929 27.2495C53.5959 29.1552 52.6121 30.8971 49.5807 31.2911C46.5504 31.6852 44.2784 33.0714 42.6402 34.2376C41.0011 35.4039 38.0716 38.9419 37.4922 40.7175C36.9139 42.494 33.6068 40.8607 32.7188 40.1512C31.8308 39.4427 30.9571 37.8899 32.7188 36.2659C34.4804 34.642 34.0986 34.3181 34.0986 32.6717C34.0986 31.0244 43.732 25.5769 49.1578 25.079C50.3638 25.0153 52.3909 25.3429 52.9929 27.2495Z" stroke="#F8F8F8" stroke-width="3.54428"/>
<path d="M34.4793 19.1878V24.1139M31.7 25.4758C28.5945 21.9256 26.091 19.9441 24.1884 19.5323M28.3013 22.0229L29.32 18.2162M47.4497 25.4749C47.1183 26.5091 47.1183 27.4779 47.4497 28.383C47.781 29.2881 48.492 30.2568 49.5807 31.2911" stroke="#F8F8F8" stroke-width="3.54428" stroke-linecap="round"/>
</svg>
